<mxfile host="app.diagrams.net" modified="2023-09-21T18:48:56.424Z" agent="Mozilla/5.0 (X11; Linux x86_64; rv:109.0) Gecko/20100101 Firefox/114.0" version="21.8.0" etag="WpTVXak30FkoVxNC3UaU" type="github">
  <diagram name="PÃ¡gina-1" id="Okz2Fwnqbk2clfE7VsLt">
    <mxGraphModel>
      <root>
        <mxCell id="0" />
        <mxCell id="1" parent="0" />
      </root>
    </mxGraphModel>
  </diagram>
</mxfile>
